ffmpeg version 3.4.8-0ubuntu0.2 Copyright (c) 2000-2020 the FFmpeg developers
  built with gcc 7 (Ubuntu 7.5.0-3ubuntu1~18.04)
  configuration: --prefix=/usr --extra-version=0ubuntu0.2 --toolchain=hardened --libdir=/usr/lib/x86_64-linux-gnu --incdir=/usr/include/x86_64-linux-gnu --enable-gpl --disable-stripping --enable-avresample --enable-avisynth --enable-gnutls --enable-ladspa --enable-libass --enable-libbluray --enable-libbs2b --enable-libcaca --enable-libcdio --enable-libflite --enable-libfontconfig --enable-libfreetype --enable-libfribidi --enable-libgme --enable-libgsm --enable-libmp3lame --enable-libmysofa --enable-libopenjpeg --enable-libopenmpt --enable-libopus --enable-libpulse --enable-librubberband --enable-librsvg --enable-libshine --enable-libsnappy --enable-libsoxr --enable-libspeex --enable-libssh --enable-libtheora --enable-libtwolame --enable-libvorbis --enable-libvpx --enable-libwavpack --enable-libwebp --enable-libx265 --enable-libxml2 --enable-libxvid --enable-libzmq --enable-libzvbi --enable-omx --enable-openal --enable-opengl --enable-sdl2 --enable-libdc1394 --enable-libdrm --enable-libiec61883 --enable-chromaprint --enable-frei0r --enable-libopencv --enable-libx264 --enable-shared
  libavutil      55. 78.100 / 55. 78.100
  libavcodec     57.107.100 / 57.107.100
  libavformat    57. 83.100 / 57. 83.100
  libavdevice    57. 10.100 / 57. 10.100
  libavfilter     6.107.100 /  6.107.100
  libavresample   3.  7.  0 /  3.  7.  0
  libswscale      4.  8.100 /  4.  8.100
  libswresample   2.  9.100 /  2.  9.100
  libpostproc    54.  7.100 / 54.  7.100
[rawvideo @ 0x5560dd357a20] Estimating duration from bitrate, this may be inaccurate
Input #0, rawvideo, from '../../SVC-Encoder-20220109T061506Z-001/SVC-Encoder/Dataset/RollerCoaster/ERP_8x8/tile_yuv/Tile_42_480x240.yuv':
  Duration: 00:00:10.00, start: 0.000000, bitrate: 41472 kb/s
    Stream #0:0: Video: rawvideo (I420 / 0x30323449), yuv420p, 480x240, 41472 kb/s, 30 tbr, 30 tbn, 30 tbc
Stream mapping:
  Stream #0:0 -> #0:0 (rawvideo (native) -> h264 (libx264))
Press [q] to stop, [?] for help
[libx264 @ 0x5560dd364c60] using cpu capabilities: MMX2 SSE2Fast LZCNT SSSE3 SSE4.2 AVX
[libx264 @ 0x5560dd364c60] profile High, level 2.1
Output #0, rawvideo, to 'RollerCoaster_Tile_42_480x240_x264_QP_20.h264':
  Metadata:
    encoder         : Lavf57.83.100
    Stream #0:0: Video: h264 (libx264), yuv420p, 480x240, q=-1--1, 30 fps, 30 tbn, 30 tbc
    Metadata:
      encoder         : Lavc57.107.100 libx264
    Side data:
      cpb: bitrate max/min/avg: 0/0/0 buffer size: 0 vbv_delay: -1
frame=  116 fps=0.0 q=26.0 PSNR=Y:nan U:nan V:nan *:nan size=     201kB time=00:00:02.43 bitrate= 676.1kbits/s speed=4.85x    frame=  215 fps=213 q=26.0 PSNR=Y:nan U:nan V:nan *:nan size=     256kB time=00:00:05.73 bitrate= 365.8kbits/s speed=5.67x    frame=  300 fps=183 q=26.0 LPSNR=Y:inf U:inf V:inf *:inf size=     766kB time=00:00:09.93 bitrate= 631.5kbits/s speed=6.05x    
video:766kB audio:0kB subtitle:0kB other streams:0kB global headers:0kB muxing overhead: 0.000000%
[libx264 @ 0x5560dd364c60] frame I:2     Avg QP:17.90  size: 25103  PSNR Mean Y:46.78 U:50.64 V:52.71 Avg:47.87 Global:47.82
[libx264 @ 0x5560dd364c60] frame P:76    Avg QP:19.80  size:  7759  PSNR Mean Y:43.19 U:49.57 V:50.78 Avg:44.53 Global:44.45
[libx264 @ 0x5560dd364c60] frame B:222   Avg QP:25.42  size:   650  PSNR Mean Y:42.47 U:49.39 V:50.60 Avg:43.86 Global:43.80
[libx264 @ 0x5560dd364c60] consecutive B-frames:  1.0%  0.7%  1.0% 97.3%
[libx264 @ 0x5560dd364c60] mb I  I16..4:  0.0% 74.6% 25.4%
[libx264 @ 0x5560dd364c60] mb P  I16..4:  0.0%  0.0%  0.0%  P16..4: 30.2% 36.7% 31.4%  0.0%  0.0%    skip: 1.7%
[libx264 @ 0x5560dd364c60] mb B  I16..4:  0.0%  0.0%  0.0%  B16..8: 57.9%  8.6%  0.9%  direct: 0.6%  skip:32.0%  L0:38.5% L1:47.9% BI:13.6%
[libx264 @ 0x5560dd364c60] 8x8 transform intra:74.5% inter:63.4%
[libx264 @ 0x5560dd364c60] coded y,uvDC,uvAC intra: 99.8% 98.6% 75.1% inter: 24.7% 15.0% 0.1%
[libx264 @ 0x5560dd364c60] i8 v,h,dc,ddl,ddr,vr,hd,vl,hu:  5% 11%  9% 14%  6%  4%  9% 30% 11%
[libx264 @ 0x5560dd364c60] i4 v,h,dc,ddl,ddr,vr,hd,vl,hu:  7% 13%  6% 18%  6%  4%  8% 29%  9%
[libx264 @ 0x5560dd364c60] i8c dc,h,v,p: 40% 21% 15% 24%
[libx264 @ 0x5560dd364c60] Weighted P-Frames: Y:0.0% UV:0.0%
[libx264 @ 0x5560dd364c60] ref P L0: 62.5% 24.0% 12.3%  1.2%
[libx264 @ 0x5560dd364c60] ref B L0: 94.7%  4.9%  0.4%
[libx264 @ 0x5560dd364c60] ref B L1: 97.6%  2.4%
[libx264 @ 0x5560dd364c60] PSNR Mean Y:42.683 U:49.448 V:50.659 Avg:44.055 Global:43.974 kb/s:627.33
